<?xml version="1.0" encoding="UTF-8" standalone="no"?> <svg xmlns="http://www.w3.org/2000/svg" viewBox="0 0 512 512"><title>compass</title><g id="compass"><path d="M147.28,181.13l-.8.86c-.56.6-1.12,1.21-1.67,1.83l-.78.88c-.55.62-1.1,1.24-1.64,1.87l-.73.87c-.55.64-1.09,1.29-1.63,1.94l-.64.8-1.66,2.07-.41.54q-2.92,3.77-5.62,7.71l-.33.48c-.45.66-.89,1.33-1.33,2l-.73,1.1-1.17,1.85-.81,1.31c-.37.59-.72,1.2-1.08,1.8s-.56.93-.83,1.4-.68,1.18-1,1.77l-.83,1.48c-.32.59-.64,1.17-1,1.76s-.55,1-.82,1.54l-.9,1.75-.79,1.6c-.29.58-.57,1.16-.85,1.74s-.51,1.11-.77,1.66-.53,1.15-.79,1.73-.51,1.15-.75,1.72-.5,1.14-.74,1.71-.5,1.2-.74,1.8-.45,1.12-.67,1.68l-.74,1.92-.6,1.6c-.28.76-.54,1.52-.81,2.28-.14.43-.3.85-.44,1.27-.4,1.18-.78,2.36-1.15,3.55-.14.44-.27.89-.41,1.34-.23.77-.46,1.53-.68,2.3-.15.52-.29,1-.43,1.55-.2.71-.39,1.42-.58,2.14-.14.53-.27,1.07-.41,1.61l-.51,2.1c-.13.56-.25,1.12-.38,1.67l-.45,2.08c-.12.57-.23,1.14-.34,1.71s-.28,1.38-.41,2.08l-.3,1.72c-.12.7-.24,1.4-.35,2.1l-.27,1.73-.3,2.13c-.07.58-.15,1.15-.22,1.72-.09.73-.17,1.45-.25,2.18l-.18,1.71c-.07.74-.14,1.49-.2,2.24-.05.55-.1,1.11-.14,1.67l-.15,2.36L104,282.7c0,.89-.07,1.77-.1,2.66,0,.43,0,.86,0,1.3,0,1.32-.05,2.65-.05,4,0,88.23,71.78,160,160,160s160-71.79,160-160c0-1.33,0-2.66-.05-4,0-.43,0-.87-.05-1.3,0-.89-.05-1.77-.1-2.66,0-.52-.06-1-.09-1.56,0-.79-.09-1.58-.15-2.36,0-.56-.09-1.12-.14-1.67-.06-.75-.12-1.5-.2-2.24q-.07-.86-.18-1.71c-.08-.73-.16-1.45-.25-2.18-.07-.57-.14-1.14-.22-1.72l-.3-2.13c-.08-.58-.17-1.15-.26-1.73s-.23-1.4-.35-2.1-.21-1.15-.31-1.72-.26-1.39-.4-2.08-.23-1.14-.34-1.71-.3-1.39-.46-2.08-.25-1.11-.38-1.67-.33-1.39-.51-2.09c-.13-.54-.27-1.08-.41-1.62-.18-.72-.38-1.43-.57-2.14-.15-.52-.28-1-.43-1.55-.22-.77-.45-1.53-.69-2.3-.13-.45-.26-.9-.4-1.34-.37-1.19-.76-2.37-1.15-3.55l-.45-1.26c-.26-.76-.53-1.53-.81-2.29-.19-.53-.4-1.06-.6-1.59s-.48-1.29-.73-1.93-.45-1.12-.67-1.67-.49-1.21-.74-1.81-.49-1.14-.74-1.71l-.75-1.72c-.26-.58-.53-1.16-.8-1.73s-.51-1.11-.77-1.66l-.84-1.74-.8-1.6c-.3-.59-.59-1.17-.9-1.75l-.81-1.54-.95-1.76-.83-1.48-1-1.77-.84-1.41c-.35-.6-.71-1.2-1.07-1.79l-.82-1.31c-.39-.62-.77-1.23-1.17-1.85l-.73-1.11-1.32-2-.36-.52q-2.68-3.92-5.58-7.66c-.15-.18-.29-.37-.43-.55-.54-.69-1.09-1.38-1.65-2.06l-.65-.81c-.53-.65-1.08-1.3-1.62-1.94l-.74-.87c-.54-.63-1.09-1.25-1.63-1.87-.27-.3-.52-.59-.79-.88-.55-.62-1.11-1.23-1.67-1.84l-.8-.85c-.57-.61-1.15-1.21-1.73-1.81l-.78-.81c-.6-.6-1.2-1.21-1.81-1.8l-.75-.74c-.63-.61-1.26-1.22-1.9-1.82l-.69-.64-2-1.86c-.19-.16-.38-.32-.56-.49-.73-.65-1.47-1.3-2.22-1.94l-.28-.24a159.65,159.65,0,0,0-16.86-12.6l0,0c-.93-.6-1.86-1.19-2.81-1.78l-.28-.18c-.91-.55-1.82-1.1-2.74-1.64l-.39-.24L341.81,151c-.14-.09-.29-.17-.44-.25-.91-.51-1.83-1-2.75-1.5l-.43-.22c-.94-.5-1.88-1-2.83-1.46l-.35-.17c-1-.49-2-1-3-1.45l-.18-.08a158.67,158.67,0,0,0-30.63-10.78h0c-1.15-.28-2.3-.54-3.45-.79l-.21,0q-1.69-.36-3.39-.69l-.28-.06q-1.68-.32-3.39-.6l-.28-.05q-1.71-.28-3.45-.54l-.19,0c-1.19-.17-2.38-.33-3.58-.47V115.72a41.67,41.67,0,1,0-38.27,0v16.06h0c-1.2.14-2.38.3-3.57.47l-.21,0c-1.14.17-2.29.35-3.42.54l-.31.05c-1.13.19-2.25.39-3.37.6l-.3.06c-1.13.22-2.25.45-3.37.69l-.23,0c-1.14.24-2.29.5-3.42.78h-.07a159.49,159.49,0,0,0-30.62,10.78l-.18.09c-1,.46-2,1-3,1.44l-.36.17c-.95.48-1.89,1-2.83,1.46l-.42.22q-1.4.73-2.76,1.5l-.44.25-2.72,1.55-.39.24c-.92.54-1.83,1.09-2.74,1.65l-.28.17c-.94.59-1.88,1.18-2.81,1.78l0,0A160.9,160.9,0,0,0,160,169l-.27.23q-1.12,1-2.22,1.95l-.55.48c-.68.62-1.36,1.24-2,1.87l-.68.63c-.64.6-1.27,1.21-1.9,1.82l-.76.74c-.6.59-1.21,1.2-1.8,1.81l-.79.8C148.43,179.92,147.85,180.52,147.28,181.13Zm116.56,256c-80.79,0-146.52-65.73-146.52-146.52s65.73-146.51,146.52-146.51,146.51,65.72,146.51,146.51S344.63,437.16,263.84,437.16Zm5.63-308.88H258.2V121.1h11.27Zm-33.8-49.56a28.17,28.17,0,1,1,28.17,28.17A28.2,28.2,0,0,1,235.67,78.72Z"/><path d="M267.57,286.91a5.28,5.28,0,0,0-7.47,0,5.21,5.21,0,0,0-1.54,3.73,5.28,5.28,0,1,0,10.56,0,5.22,5.22,0,0,0-1.55-3.73Z"/><path d="M326.86,344.72l-35.76-78a6.71,6.71,0,0,0-3.32-3.32l-78-35.76a6.75,6.75,0,0,0-8.94,8.95l35.75,78a6.79,6.79,0,0,0,3.33,3.33l78,35.75a6.64,6.64,0,0,0,2.81.62,6.75,6.75,0,0,0,6.14-9.56Zm-50.94-42a17.09,17.09,0,1,1,0-24.18h0a17.09,17.09,0,0,1,0,24.18Z"/><path d="M265.35,170a6.72,6.72,0,0,0-1.75-.25,6.88,6.88,0,0,0-1.77.26A120.68,120.68,0,1,0,384.52,290.64v-.55A120.83,120.83,0,0,0,265.35,170Zm86.86,126.94h18.61a107.3,107.3,0,0,1-100,100.66v-18.8a6.75,6.75,0,0,0-13.5,0v18.84A107.31,107.31,0,0,1,156.89,297.39h18.57a6.75,6.75,0,1,0,0-13.5H156.89a107.31,107.31,0,0,1,100-100.18V202a6.75,6.75,0,0,0,13.5,0V183.67a107.32,107.32,0,0,1,100.4,99.74H352.21a6.75,6.75,0,0,0,0,13.5Z"/><path d="M283,78.72a19.14,19.14,0,1,0-19.13,19.14A19.15,19.15,0,0,0,283,78.72Zm-24.77,0a5.64,5.64,0,1,1,5.64,5.64A5.64,5.64,0,0,1,258.2,78.72Z"/><path d="M423.59,219.13l.89,2.09a6.74,6.74,0,0,0,6.21,4.12,6.84,6.84,0,0,0,2.64-.53,6.76,6.76,0,0,0,3.58-8.85l-.87-2.05c-1.3-3.1-2.92-7-4.12-9.43a6.75,6.75,0,0,0-12.14,5.9C420.82,212.51,422.42,216.34,423.59,219.13Z"/><path d="M341.07,132c4.23,2.15,8.42,4.49,12.45,6.95,4.27,2.61,8.46,5.42,12.45,8.35a179.61,179.61,0,0,1,17.46,14.61,177.38,177.38,0,0,1,13,13.82c3.35,3.95,6.55,8.08,9.51,12.28a6.75,6.75,0,1,0,11-7.79c-3.19-4.52-6.64-9-10.23-13.22A192.37,192.37,0,0,0,374,136.38c-4.3-3.16-8.81-6.18-13.39-9-4.35-2.66-8.85-5.17-13.39-7.48a6.75,6.75,0,0,0-6.11,12Z"/><path d="M94.1,374.58a190.3,190.3,0,0,0,11.54,20.27c2.57,3.94,5.32,7.84,8.19,11.58a192.3,192.3,0,0,0,57.35,50.25,6.69,6.69,0,0,0,3.35.9A6.75,6.75,0,0,0,177.89,445a181.47,181.47,0,0,1-18.14-11.9A183.37,183.37,0,0,1,144.17,420a180.61,180.61,0,0,1-19.62-21.75c-2.66-3.48-5.22-7.11-7.61-10.77a180.63,180.63,0,0,1-10.73-18.84,6.75,6.75,0,1,0-12.11,5.95Z"/><path d="M217.54,461.65a84.68,84.68,0,0,1-10.6-3.35l-2-.74a6.75,6.75,0,1,0-4.65,12.67l2,.73a94.11,94.11,0,0,0,11.92,3.77,6.45,6.45,0,0,0,1.68.21,6.75,6.75,0,0,0,1.67-13.29Z"/><path d="M84.36,350.47a6.75,6.75,0,0,0,6.23,4.15,6.64,6.64,0,0,0,2.6-.53,6.74,6.74,0,0,0,3.62-8.83c-1.83-4.37-3-8.43-3-8.47a6.75,6.75,0,0,0-13,3.73A101.61,101.61,0,0,0,84.36,350.47Z"/></g></svg>